<svg xmlns="http://www.w3.org/2000/svg" width="194" height="248.063" viewBox="0 0 194 248.063">
  <metadata><?xpacket begin="﻿" id="W5M0MpCehiHzreSzNTczkc9d"?>
<x:xmpmeta xmlns:x="adobe:ns:meta/" x:xmptk="Adobe XMP Core 5.6-c142 79.160924, 2017/07/13-01:06:39        ">
   <rdf:RDF xmlns:rdf="http://www.w3.org/1999/02/22-rdf-syntax-ns#">
      <rdf:Description rdf:about=""/>
   </rdf:RDF>
</x:xmpmeta>
                                                                                                    
                                                                                                    
                                                                                                    
                                                                                                    
                                                                                                    
                                                                                                    
                                                                                                    
                                                                                                    
                                                                                                    
                                                                                                    
                                                                                                    
                                                                                                    
                                                                                                    
                                                                                                    
                                                                                                    
                                                                                                    
                                                                                                    
                                                                                                    
                                                                                                    
                                                                                                    
                           
<?xpacket end="w"?></metadata>
<defs>
    <style>
      .cls-1 {
        fill-rule: evenodd;
      }
    </style>
  </defs>
  <path class="cls-1" d="M209.033,0.951H39.079A12.052,12.052,0,0,0,27.05,12.995V236.941a12.053,12.053,0,0,0,12.029,12.047H209.033a12.053,12.053,0,0,0,12.029-12.047V12.995A12.052,12.052,0,0,0,209.033.951Zm3.773,235.99a3.778,3.778,0,0,1-3.773,3.779H39.079a3.779,3.779,0,0,1-3.773-3.779V12.995a3.778,3.778,0,0,1,3.773-3.777H209.033a3.778,3.778,0,0,1,3.773,3.777V236.941ZM47.689,228.319H93.1V182.844H47.689v45.475Zm8.256-37.208h28.9v28.938h-28.9V191.111Zm45.408,37.208H146.76V182.844H101.353v45.475Zm8.255-37.208h28.9v28.938h-28.9V191.111Zm45.407,37.208h45.407V129.1H155.015v99.216Zm8.256-90.949h28.9v82.679h-28.9V137.37ZM47.689,174.576H93.1V129.1H47.689v45.473Zm8.256-37.206h28.9v28.939h-28.9V137.37Zm45.408,37.206H146.76V129.1H101.353v45.473Zm8.255-37.206h28.9v28.939h-28.9V137.37ZM47.689,120.836H93.1V75.363H47.689v45.474ZM55.945,83.63h28.9v28.938h-28.9V83.63Zm45.408,37.206H146.76V75.363H101.353v45.474Zm8.255-37.206h28.9v28.938h-28.9V83.63Zm45.407,37.206h45.407V75.363H155.015v45.474Zm8.256-37.206h28.9v28.938h-28.9V83.63ZM47.689,62.959H200.422V21.619H47.689v41.34Zm8.256-33.072H192.166v24.8H55.945v-24.8Z" transform="translate(-27.063 -0.938)"/>
</svg>
