<svg xmlns="http://www.w3.org/2000/svg" width="247.031" height="248.969" viewBox="0 0 247.031 248.969">
  <metadata><?xpacket begin="﻿" id="W5M0MpCehiHzreSzNTczkc9d"?>
<x:xmpmeta xmlns:x="adobe:ns:meta/" x:xmptk="Adobe XMP Core 5.6-c142 79.160924, 2017/07/13-01:06:39        ">
   <rdf:RDF xmlns:rdf="http://www.w3.org/1999/02/22-rdf-syntax-ns#">
      <rdf:Description rdf:about=""/>
   </rdf:RDF>
</x:xmpmeta>
                                                                                                    
                                                                                                    
                                                                                                    
                                                                                                    
                                                                                                    
                                                                                                    
                                                                                                    
                                                                                                    
                                                                                                    
                                                                                                    
                                                                                                    
                                                                                                    
                                                                                                    
                                                                                                    
                                                                                                    
                                                                                                    
                                                                                                    
                                                                                                    
                                                                                                    
                                                                                                    
                           
<?xpacket end="w"?></metadata>
<defs>
    <style>
      .cls-1 {
        fill-rule: evenodd;
      }
    </style>
  </defs>
  <path class="cls-1" d="M226.288,175.54h-22.1c0.595-20.072,4.091-36.337,10.637-49.576a35.95,35.95,0,0,0,3.745-16.079,36.46,36.46,0,0,0-13.387-28.326,35.86,35.86,0,0,0-15.562-7.4V7.27a7.267,7.267,0,0,0-7.238-7.3H51.629c-0.034,0-.068.008-0.1,0.008a7.231,7.231,0,0,0-5.01,2.124,0.013,0.013,0,0,1-.008.005L3.089,45.879a0.02,0.02,0,0,1-.005.008A7.308,7.308,0,0,0,.974,50.93c0,0.038-.005.074-0.005,0.11V241.68a7.267,7.267,0,0,0,7.237,7.3H226.288a7.267,7.267,0,0,0,7.237-7.3V219.31h7.237a7.267,7.267,0,0,0,7.237-7.3V197.424A21.824,21.824,0,0,0,226.288,175.54Zm-22.2-65.655a21.392,21.392,0,0,1-2.224,9.568c-7.546,15.263-11.539,33.663-12.161,56.087H175.145c0-14.824-1.814-29.412-12.979-57.728a22.311,22.311,0,0,1-.814-13.515,21.652,21.652,0,0,1,34.7-11.411A21.878,21.878,0,0,1,204.093,109.885Zm-159.7-85V43.745H25.679ZM15.443,58.336H51.629a7.267,7.267,0,0,0,7.237-7.3V14.565H175.145v59.56c-0.17.036-.341,0.067-0.511,0.1a36.438,36.438,0,0,0-27.342,26.605,36.935,36.935,0,0,0,1.423,22.37c10.525,26.687,11.955,39.545,11.955,52.337H138.959a21.824,21.824,0,0,0-21.712,21.884v14.591a7.266,7.266,0,0,0,7.237,7.3h7.237v15.075H15.443V58.336ZM219.05,234.385H146.2V219.31H219.05v15.075Zm14.475-29.666h-101.8v-7.295a7.274,7.274,0,0,1,7.238-7.293h87.329a7.275,7.275,0,0,1,7.237,7.293v7.295ZM124.484,146.36H37.155a7.3,7.3,0,0,0,0,14.591h87.329A7.3,7.3,0,0,0,124.484,146.36Zm-14.475-29.179H37.155a7.294,7.294,0,0,0,0,14.588h72.854A7.294,7.294,0,0,0,110.009,117.181Zm0-29.18H37.155a7.295,7.295,0,0,0,0,14.589h72.854A7.295,7.295,0,0,0,110.009,88Zm43.665-29.18H80.819a7.294,7.294,0,0,0,0,14.588h72.855A7.294,7.294,0,0,0,153.674,58.822Zm0-29.18H80.819a7.294,7.294,0,0,0,0,14.589h72.855A7.294,7.294,0,0,0,153.674,29.642ZM95.535,175.54H37.155a7.3,7.3,0,0,0,0,14.591h58.38A7.3,7.3,0,0,0,95.535,175.54Zm0,29.179H37.155a7.3,7.3,0,0,0,0,14.591h58.38A7.3,7.3,0,0,0,95.535,204.719Z" transform="translate(-0.969)"/>
</svg>
