<svg xmlns="http://www.w3.org/2000/svg" width="250" height="250" viewBox="0 0 250 250">
  <metadata><?xpacket begin="﻿" id="W5M0MpCehiHzreSzNTczkc9d"?>
<x:xmpmeta xmlns:x="adobe:ns:meta/" x:xmptk="Adobe XMP Core 5.6-c142 79.160924, 2017/07/13-01:06:39        ">
   <rdf:RDF xmlns:rdf="http://www.w3.org/1999/02/22-rdf-syntax-ns#">
      <rdf:Description rdf:about=""/>
   </rdf:RDF>
</x:xmpmeta>
                                                                                                    
                                                                                                    
                                                                                                    
                                                                                                    
                                                                                                    
                                                                                                    
                                                                                                    
                                                                                                    
                                                                                                    
                                                                                                    
                                                                                                    
                                                                                                    
                                                                                                    
                                                                                                    
                                                                                                    
                                                                                                    
                                                                                                    
                                                                                                    
                                                                                                    
                                                                                                    
                           
<?xpacket end="w"?></metadata>
<defs>
    <style>
      .cls-1 {
        fill-rule: evenodd;
      }
    </style>
  </defs>
  <path class="cls-1" d="M169.423,133.39A22.236,22.236,0,1,0,191.4,155.623,22.13,22.13,0,0,0,169.423,133.39Zm0,29.647a7.413,7.413,0,1,1,7.325-7.414A7.379,7.379,0,0,1,169.423,163.037ZM213.374,74.1H36.594a7.413,7.413,0,0,0,0,14.825h176.78A7.413,7.413,0,0,0,213.374,74.1Zm-117.2,29.646H36.594a7.413,7.413,0,0,0,0,14.825H96.172A7.413,7.413,0,0,0,96.172,103.741Zm0,29.649H36.594a7.412,7.412,0,0,0,0,14.822H96.172A7.412,7.412,0,0,0,96.172,133.39Zm0,29.647H36.594a7.412,7.412,0,0,0,0,14.822H96.172A7.412,7.412,0,0,0,96.172,163.037ZM228.023-.022H21.944A22.132,22.132,0,0,0-.032,22.213V185.272a22.132,22.132,0,0,0,21.975,22.236H132.8v38.045a7.335,7.335,0,0,0,10.6,6.63l26.025-13.167,26.024,13.167a7.333,7.333,0,0,0,10.6-6.63V207.508h21.975A22.133,22.133,0,0,0,250,185.272V22.213A22.132,22.132,0,0,0,228.023-.022ZM191.4,233.56L172.7,224.1a7.239,7.239,0,0,0-6.552,0l-18.7,9.459V198.8a21.466,21.466,0,0,0,4.376-.187,21.865,21.865,0,0,0,35.2,0,21.469,21.469,0,0,0,4.376.187v34.76h0Zm9.539-70.868a7.443,7.443,0,0,0-4.291,10.481,7.444,7.444,0,0,1-1.326,8.653,7.228,7.228,0,0,1-8.553,1.343,7.3,7.3,0,0,0-10.359,4.341,7.31,7.31,0,0,1-13.972,0,7.3,7.3,0,0,0-10.359-4.341c-6.326,3.325-13.165-3.594-9.879-10a7.442,7.442,0,0,0-4.291-10.481,7.449,7.449,0,0,1,0-14.137,7.443,7.443,0,0,0,4.291-10.482c-3.284-6.4,3.553-13.32,9.88-10a7.3,7.3,0,0,0,10.358-4.341,7.311,7.311,0,0,1,13.973,0,7.3,7.3,0,0,0,10.358,4.341c6.326-3.324,13.166,3.594,9.879,10a7.443,7.443,0,0,0,4.291,10.482A7.444,7.444,0,0,1,200.937,162.692Zm27.086,29.991H206.048v-0.767a22.314,22.314,0,0,0,5.864-18.484,22.439,22.439,0,0,0,0-35.615c2.1-14.638-10.425-27.31-24.89-25.184a21.868,21.868,0,0,0-35.2,0c-14.473-2.121-26.988,10.549-24.889,25.184a22.44,22.44,0,0,0,0,35.615,22.307,22.307,0,0,0,5.863,18.484v0.767H21.943a7.377,7.377,0,0,1-7.326-7.413V22.213A7.377,7.377,0,0,1,21.943,14.8h206.08a7.377,7.377,0,0,1,7.326,7.411V185.272h0A7.377,7.377,0,0,1,228.023,192.683ZM174.6,46.619L159.954,31.8a7.262,7.262,0,0,0-10.36,0l-9.47,9.581L130.653,31.8a7.261,7.261,0,0,0-10.359,0l-9.471,9.581L101.352,31.8a7.261,7.261,0,0,0-10.359,0L76.342,46.619a7.473,7.473,0,0,0,0,10.481,7.261,7.261,0,0,0,10.359,0l9.471-9.581,9.471,9.581A7.261,7.261,0,0,0,116,57.1l9.471-9.581,9.47,9.581a7.261,7.261,0,0,0,10.359,0l9.472-9.581,9.471,9.581a7.261,7.261,0,0,0,10.359,0A7.473,7.473,0,0,0,174.6,46.619Z"/>
</svg>
