<svg xmlns="http://www.w3.org/2000/svg" width="248.906" height="249.031" viewBox="0 0 248.906 249.031">
  <metadata><?xpacket begin="﻿" id="W5M0MpCehiHzreSzNTczkc9d"?>
<x:xmpmeta xmlns:x="adobe:ns:meta/" x:xmptk="Adobe XMP Core 5.6-c142 79.160924, 2017/07/13-01:06:39        ">
   <rdf:RDF xmlns:rdf="http://www.w3.org/1999/02/22-rdf-syntax-ns#">
      <rdf:Description rdf:about=""/>
   </rdf:RDF>
</x:xmpmeta>
                                                                                                    
                                                                                                    
                                                                                                    
                                                                                                    
                                                                                                    
                                                                                                    
                                                                                                    
                                                                                                    
                                                                                                    
                                                                                                    
                                                                                                    
                                                                                                    
                                                                                                    
                                                                                                    
                                                                                                    
                                                                                                    
                                                                                                    
                                                                                                    
                                                                                                    
                                                                                                    
                           
<?xpacket end="w"?></metadata>
<defs>
    <style>
      .cls-1 {
        fill-rule: evenodd;
      }
    </style>
  </defs>
  <path class="cls-1" d="M129.984,107.914a29.049,29.049,0,1,0-29.06-29.048A29.089,29.089,0,0,0,129.984,107.914Zm0-49.8a20.75,20.75,0,1,1-20.757,20.75A20.776,20.776,0,0,1,129.984,58.116Zm-0.735,169.141,63.688-91.951c23.888-31.841,20.43-84.165-7.393-111.976a79.619,79.619,0,0,0-112.589-.005C45.128,51.138,41.669,103.47,65.466,135.177ZM78.825,29.192a71.326,71.326,0,0,1,100.848,0c25.113,25.106,28.206,72.364,6.531,101.257l-56.955,82.227L72.2,130.325C50.616,101.556,53.709,54.3,78.825,29.192ZM3.97,239l-2.935,2.934a4.15,4.15,0,1,0,5.87,5.868l2.935-2.934A4.15,4.15,0,0,0,3.97,239Zm31.618-23.183a4.151,4.151,0,1,0,0,8.3h7.555a4.151,4.151,0,1,0,0-8.3H35.588Zm-9.719,7.16a4.149,4.149,0,0,0-5.87,0l-5.343,5.342a4.15,4.15,0,0,0,5.87,5.868l5.343-5.342A4.144,4.144,0,0,0,25.869,222.976Zm55.065-7.16a4.151,4.151,0,1,0,0,8.3H88.49a4.151,4.151,0,1,0,0-8.3H80.935Zm-22.675,0a4.151,4.151,0,1,0,0,8.3h7.56a4.151,4.151,0,1,0,0-8.3h-7.56Zm45.347,0a4.151,4.151,0,1,0,0,8.3h4.151a4.151,4.151,0,1,0,0-8.3h-4.151ZM3.97,223.111A4.138,4.138,0,0,0,6.905,221.9L23,205.81a7.535,7.535,0,0,1,1.449-1.129l0.8-.43a4.144,4.144,0,0,1,.44-0.242l1.553-.477a8.907,8.907,0,0,1,1.64-.165H91.151a4.151,4.151,0,1,0,0-8.3H28.879a17.136,17.136,0,0,0-3.284.328,11.24,11.24,0,0,0-1.158.328l-0.543.162a11.349,11.349,0,0,0-1.354.438,12.341,12.341,0,0,0-1.42.719l-0.394.215a10.318,10.318,0,0,0-1.067.609,16.5,16.5,0,0,0-2.537,2.077L1.031,216.028A4.149,4.149,0,0,0,3.97,223.111Zm237.851-20.959a4.138,4.138,0,0,0,2.935-1.218L247.692,198a4.15,4.15,0,1,0-5.871-5.868l-2.935,2.934A4.152,4.152,0,0,0,241.821,202.152ZM226.348,207.6l-6.268,6.268a4.151,4.151,0,0,0,5.87,5.871l6.269-6.271A4.15,4.15,0,0,0,226.348,207.6Zm-28.607,8.218a4.151,4.151,0,1,0,0,8.3H206.6a4.151,4.151,0,1,0,0-8.3h-8.863Zm-26.591,0a4.151,4.151,0,1,0,0,8.3h8.864a4.151,4.151,0,1,0,0-8.3H171.15Zm-21.878,0a4.151,4.151,0,1,0,0,8.3h4.152a4.151,4.151,0,1,0,0-8.3h-4.152Zm92.549,2.221L225.73,234.123a7.8,7.8,0,0,1-1.441,1.127l-0.78.421a4.722,4.722,0,0,1-.494.262,4,4,0,0,1-.4.121l-1.154.347a8.028,8.028,0,0,1-1.611.165H32.574l-6.3,5.069a4.149,4.149,0,1,0,5.2,6.466l4.023-3.234H219.847a16.13,16.13,0,0,0,3.235-.325,10.169,10.169,0,0,0,1.224-.333l0.519-.155a11.28,11.28,0,0,0,1.391-.463,12.231,12.231,0,0,0,1.4-.708l0.411-.223a9.253,9.253,0,0,0,1.025-.581,16.479,16.479,0,0,0,2.549-2.088l16.092-16.086A4.15,4.15,0,1,0,241.821,218.037Zm-80.095-18.819a4.149,4.149,0,0,0,4.152,4.149H216.41L230.081,189.7a4.15,4.15,0,0,0-5.871-5.868l-11.237,11.234h-47.1A4.15,4.15,0,0,0,161.726,199.218Z"/>
</svg>
