<svg xmlns="http://www.w3.org/2000/svg" width="246.062" height="246" viewBox="0 0 246.062 246">
  <metadata><?xpacket begin="﻿" id="W5M0MpCehiHzreSzNTczkc9d"?>
<x:xmpmeta xmlns:x="adobe:ns:meta/" x:xmptk="Adobe XMP Core 5.6-c142 79.160924, 2017/07/13-01:06:39        ">
   <rdf:RDF xmlns:rdf="http://www.w3.org/1999/02/22-rdf-syntax-ns#">
      <rdf:Description rdf:about=""/>
   </rdf:RDF>
</x:xmpmeta>
                                                                                                    
                                                                                                    
                                                                                                    
                                                                                                    
                                                                                                    
                                                                                                    
                                                                                                    
                                                                                                    
                                                                                                    
                                                                                                    
                                                                                                    
                                                                                                    
                                                                                                    
                                                                                                    
                                                                                                    
                                                                                                    
                                                                                                    
                                                                                                    
                                                                                                    
                                                                                                    
                           
<?xpacket end="w"?></metadata>
<defs>
    <style>
      .cls-1 {
        fill-rule: evenodd;
      }
    </style>
  </defs>
  <path class="cls-1" d="M208.625,62.454a36.043,36.043,0,1,0-49.028-.07A64.994,64.994,0,0,0,129.611,86.66q-1.789-.175-3.611-0.176t-3.611.176A64.973,64.973,0,0,0,92.4,62.384a36.041,36.041,0,1,0-49.027.07,64.96,64.96,0,0,0-40.4,60.065v28.828a7.166,7.166,0,0,0,7.209,7.158H84.972A64.679,64.679,0,0,0,60.644,209v29.79A7.208,7.208,0,0,0,67.852,246h116.3a7.208,7.208,0,0,0,7.208-7.207V209a64.577,64.577,0,0,0-24.328-50.446h74.787a7.208,7.208,0,0,0,7.209-7.207V122.518A64.961,64.961,0,0,0,208.625,62.454ZM184.148,14.414a21.621,21.621,0,1,1-21.625,21.621A21.647,21.647,0,0,1,184.148,14.414ZM126,100.9c11.983,0,22.106,9.9,22.106,21.621S137.983,144.139,126,144.139s-22.106-9.9-22.106-21.621S114.017,100.9,126,100.9ZM67.852,14.414A21.621,21.621,0,1,1,46.227,36.035,21.647,21.647,0,0,1,67.852,14.414ZM17.393,144.139V122.518A50.51,50.51,0,0,1,67.852,72.07a51.14,51.14,0,0,1,40.075,19.191,35.99,35.99,0,0,0-18.45,31.257,35.279,35.279,0,0,0,7.378,21.621H17.393Zm101.4,87.443H75.061V209a50.275,50.275,0,0,1,21.476-41.13l22.255,29.154v34.559Zm-9.185-70.351a51.513,51.513,0,0,1,32.786,0L126,182.707ZM176.939,209v22.583h-43.73V197.023l22.255-29.154A50.275,50.275,0,0,1,176.939,209Zm57.667-64.86H155.145a35.277,35.277,0,0,0,7.378-21.621,35.987,35.987,0,0,0-18.45-31.257A51.15,51.15,0,0,1,184.148,72.07a50.509,50.509,0,0,1,50.458,50.448v21.621ZM212.981,100.9H198.565a7.207,7.207,0,1,0,0,14.414h14.416A7.207,7.207,0,1,0,212.981,100.9Zm-159.545,0H39.018a7.207,7.207,0,1,0,0,14.414H53.436A7.207,7.207,0,1,0,53.436,100.9Z" transform="translate(-2.969)"/>
</svg>
