<svg xmlns="http://www.w3.org/2000/svg" width="228.969" height="248" viewBox="0 0 228.969 248">
  <metadata><?xpacket begin="﻿" id="W5M0MpCehiHzreSzNTczkc9d"?>
<x:xmpmeta xmlns:x="adobe:ns:meta/" x:xmptk="Adobe XMP Core 5.6-c142 79.160924, 2017/07/13-01:06:39        ">
   <rdf:RDF xmlns:rdf="http://www.w3.org/1999/02/22-rdf-syntax-ns#">
      <rdf:Description rdf:about=""/>
   </rdf:RDF>
</x:xmpmeta>
                                                                                                    
                                                                                                    
                                                                                                    
                                                                                                    
                                                                                                    
                                                                                                    
                                                                                                    
                                                                                                    
                                                                                                    
                                                                                                    
                                                                                                    
                                                                                                    
                                                                                                    
                                                                                                    
                                                                                                    
                                                                                                    
                                                                                                    
                                                                                                    
                                                                                                    
                                                                                                    
                           
<?xpacket end="w"?></metadata>
<defs>
    <style>
      .cls-1 {
        fill: #0d0d0d;
        fill-rule: evenodd;
      }
    </style>
  </defs>
  <path class="cls-1" d="M40.313,114.3a7.251,7.251,0,0,0,7.239-7.266V85.526a7.239,7.239,0,1,0-14.478,0v21.506A7.251,7.251,0,0,0,40.313,114.3Zm24.282,0H75.884a11.889,11.889,0,0,0,11.855-11.9V90.16a11.889,11.889,0,0,0-11.855-11.9H64.6a11.889,11.889,0,0,0-11.854,11.9V102.4A11.889,11.889,0,0,0,64.6,114.3Zm2.624-21.506h6.042v6.976H67.219V92.792ZM100.305,114.3a7.252,7.252,0,0,0,7.239-7.266V85.526a7.239,7.239,0,1,0-14.477,0v21.506A7.25,7.25,0,0,0,100.305,114.3ZM234.14,40.325L195.958,3.619a9.228,9.228,0,0,0-6.426-2.589H85.355A22.421,22.421,0,0,0,63,23.465v30.6H29.822A21.86,21.86,0,0,0,8.028,75.941V227.157a21.859,21.859,0,0,0,21.794,21.875h111.86a21.86,21.86,0,0,0,21.794-21.875v-7.035h51.173A22.42,22.42,0,0,0,237,197.689V47.056A9.386,9.386,0,0,0,234.14,40.325Zm-21.485-.532H192.769V20.675ZM29.822,68.6h111.86A7.336,7.336,0,0,1,149,75.941V122.6H22.506V75.941A7.336,7.336,0,0,1,29.822,68.6Zm94.13,107.993h-16V162.247h16v14.344Zm-30.478,0H78.031V162.247H93.474v14.344Zm0,57.908H78.031V220.122H93.474V234.5Zm0-28.907H78.031V191.121H93.474v14.471Zm-29.921-29h-16V162.247h16v14.344Zm-16,14.53h16v14.471h-16V191.121Zm0,29h16V234.5h-16V220.122Zm60.4,14.377V191.121h16V234.5h-16ZM149,227.157a7.338,7.338,0,0,1-7.316,7.342H138.43V156.057a8.336,8.336,0,0,0-8.31-8.34H41.384a8.334,8.334,0,0,0-8.31,8.34V234.5H29.822a7.337,7.337,0,0,1-7.316-7.342V137.133H149v90.024Zm65.651-21.565H163.476V75.941a21.861,21.861,0,0,0-21.794-21.875h-64.2v-30.6a7.9,7.9,0,0,1,7.876-7.9h92.937V43.306a11.011,11.011,0,0,0,10.977,11.019h33.258V197.689A7.9,7.9,0,0,1,214.649,205.592Z" transform="translate(-8.031 -1.031)"/>
</svg>
