<svg xmlns="http://www.w3.org/2000/svg" width="246.031" height="247.031" viewBox="0 0 246.031 247.031">
  <metadata><?xpacket begin="﻿" id="W5M0MpCehiHzreSzNTczkc9d"?>
<x:xmpmeta xmlns:x="adobe:ns:meta/" x:xmptk="Adobe XMP Core 5.6-c142 79.160924, 2017/07/13-01:06:39        ">
   <rdf:RDF xmlns:rdf="http://www.w3.org/1999/02/22-rdf-syntax-ns#">
      <rdf:Description rdf:about=""/>
   </rdf:RDF>
</x:xmpmeta>
                                                                                                    
                                                                                                    
                                                                                                    
                                                                                                    
                                                                                                    
                                                                                                    
                                                                                                    
                                                                                                    
                                                                                                    
                                                                                                    
                                                                                                    
                                                                                                    
                                                                                                    
                                                                                                    
                                                                                                    
                                                                                                    
                                                                                                    
                                                                                                    
                                                                                                    
                                                                                                    
                           
<?xpacket end="w"?></metadata>
<defs>
    <style>
      .cls-1 {
        fill-rule: evenodd;
      }
    </style>
  </defs>
  <path class="cls-1" d="M225.585,26.609a79.768,79.768,0,0,0-113.353.005A80.578,80.578,0,0,0,88.782,83.74a91.378,91.378,0,0,0,3.12,22.713,2.07,2.07,0,0,1-.556,1.958L7.832,192.6A16.577,16.577,0,0,0,3,204.354v29.991a16.584,16.584,0,0,0,16.5,16.631H43.806a16.584,16.584,0,0,0,16.5-16.631v-7.21a2.094,2.094,0,0,1,2.084-2.1H69.54A16.584,16.584,0,0,0,86.04,208.4v-7.21a2.094,2.094,0,0,1,2.084-2.1h12.595a16.335,16.335,0,0,0,11.668-4.871l31.957-32.217a2.132,2.132,0,0,1,2.065-.527,86.379,86.379,0,0,0,22.5,3.025,79.294,79.294,0,0,0,56.674-23.637A81.322,81.322,0,0,0,225.585,26.609Zm-10.2,103.986a65.03,65.03,0,0,1-46.481,19.38,72.09,72.09,0,0,1-18.771-2.531,16.5,16.5,0,0,0-15.983,4.29l-31.959,32.215a2.061,2.061,0,0,1-1.474.616H88.125a16.584,16.584,0,0,0-16.5,16.63v7.21a2.094,2.094,0,0,1-2.083,2.1H62.391a16.583,16.583,0,0,0-16.5,16.63v7.21a2.094,2.094,0,0,1-2.084,2.1H19.5a2.093,2.093,0,0,1-2.083-2.1V204.354a2.1,2.1,0,0,1,.61-1.485l83.514-84.182a16.744,16.744,0,0,0,4.326-15.854A76.934,76.934,0,0,1,103.2,83.74a66.082,66.082,0,0,1,19.227-46.851,65.434,65.434,0,0,1,92.965-.005A66.71,66.71,0,0,1,215.386,130.594Zm-46.369-90a43.6,43.6,0,1,0,43.248,43.595A43.471,43.471,0,0,0,169.017,40.591Zm0,72.657a29.063,29.063,0,1,1,28.832-29.062A28.981,28.981,0,0,1,169.017,113.248Z" transform="translate(-3 -2.969)"/>
</svg>
