<svg xmlns="http://www.w3.org/2000/svg" width="103" height="250" viewBox="0 0 103 250">
  <metadata><?xpacket begin="﻿" id="W5M0MpCehiHzreSzNTczkc9d"?>
<x:xmpmeta xmlns:x="adobe:ns:meta/" x:xmptk="Adobe XMP Core 5.6-c142 79.160924, 2017/07/13-01:06:39        ">
   <rdf:RDF xmlns:rdf="http://www.w3.org/1999/02/22-rdf-syntax-ns#">
      <rdf:Description rdf:about=""/>
   </rdf:RDF>
</x:xmpmeta>
                                                                                                    
                                                                                                    
                                                                                                    
                                                                                                    
                                                                                                    
                                                                                                    
                                                                                                    
                                                                                                    
                                                                                                    
                                                                                                    
                                                                                                    
                                                                                                    
                                                                                                    
                                                                                                    
                                                                                                    
                                                                                                    
                                                                                                    
                                                                                                    
                                                                                                    
                                                                                                    
                           
<?xpacket end="w"?></metadata>
<defs>
    <style>
      .cls-1 {
        fill-rule: evenodd;
      }
    </style>
  </defs>
  <path class="cls-1" d="M174.284,245.764a10.288,10.288,0,0,1-8.644,4.226l-42.413-.153a16.8,16.8,0,0,1-6.481-1.047,22.024,22.024,0,0,1-6-3.164c-0.107-.109-0.456-0.407-1.042-0.894a28.835,28.835,0,0,1-2.159-2.022,105.355,105.355,0,0,1-8.8-11.033q-5.759-7.941-11.517-22.057T77.156,174.58q-4.315-20.922-4.145-49.642a254.754,254.754,0,0,1,2.573-40.232A218.345,218.345,0,0,1,82.4,53.8a145.4,145.4,0,0,1,8.81-22.56,118.742,118.742,0,0,1,8.969-15.25A56.665,56.665,0,0,1,107.46,7.3q3.042-2.76,3.361-3.084a22.108,22.108,0,0,1,6-3.164A16.675,16.675,0,0,1,123.307,0L165.88-.012A9.883,9.883,0,0,1,173.242,2.9a8.586,8.586,0,0,1,2.479,4.945,16.193,16.193,0,0,1-.241,5.76L160.1,63.907a11.166,11.166,0,0,1-4.8,6.494,13.986,13.986,0,0,1-7.844,2.436H131.766a3.923,3.923,0,0,0-1.6.487,5.786,5.786,0,0,0-1.44.975,41.72,41.72,0,0,0-4.8,10.712,102.211,102.211,0,0,0-3.446,15.49,151.206,151.206,0,0,0-1.369,24.421,154.2,154.2,0,0,0,1.352,24.574,107.286,107.286,0,0,0,3.357,15.578,35.9,35.9,0,0,0,3.439,8.189l1.6,2.436a5.724,5.724,0,0,0,1.281.808,3.7,3.7,0,0,0,1.6.487l18.406-.167a13.738,13.738,0,0,1,9.281,4.21,12.011,12.011,0,0,1,3.36,5.353l0.159,0.167,12.628,49.8Q176.847,241.872,174.284,245.764Z" transform="translate(-73)"/>
</svg>
