<svg xmlns="http://www.w3.org/2000/svg" width="248.062" height="248.063" viewBox="0 0 248.062 248.063">
  <metadata><?xpacket begin="﻿" id="W5M0MpCehiHzreSzNTczkc9d"?>
<x:xmpmeta xmlns:x="adobe:ns:meta/" x:xmptk="Adobe XMP Core 5.6-c142 79.160924, 2017/07/13-01:06:39        ">
   <rdf:RDF xmlns:rdf="http://www.w3.org/1999/02/22-rdf-syntax-ns#">
      <rdf:Description rdf:about=""/>
   </rdf:RDF>
</x:xmpmeta>
                                                                                                    
                                                                                                    
                                                                                                    
                                                                                                    
                                                                                                    
                                                                                                    
                                                                                                    
                                                                                                    
                                                                                                    
                                                                                                    
                                                                                                    
                                                                                                    
                                                                                                    
                                                                                                    
                                                                                                    
                                                                                                    
                                                                                                    
                                                                                                    
                                                                                                    
                                                                                                    
                           
<?xpacket end="w"?></metadata>
<defs>
    <style>
      .cls-1 {
        fill-rule: evenodd;
      }
    </style>
  </defs>
  <path class="cls-1" d="M21.627,151.79a4.13,4.13,0,0,0,4.134-4.134v-8.268a4.134,4.134,0,1,0-8.268,0v8.268A4.13,4.13,0,0,0,21.627,151.79ZM46.433,66.144H38.164a4.134,4.134,0,0,0,0,8.268h8.269A4.134,4.134,0,1,0,46.433,66.144Zm-20.672,139.4v-8.27a4.134,4.134,0,0,0-8.268,0v8.27A4.134,4.134,0,0,0,25.761,205.543Zm10.621,17.6a12.328,12.328,0,0,1-5.648-2.344,4.137,4.137,0,0,0-4.966,6.617,20.606,20.606,0,0,0,9.459,3.915,4.322,4.322,0,0,0,.583.038A4.133,4.133,0,0,0,36.382,223.14ZM21.627,180.732a4.129,4.129,0,0,0,4.134-4.131V168.33a4.134,4.134,0,1,0-8.268,0V176.6A4.129,4.129,0,0,0,21.627,180.732Zm161.24-106.32h8.269a4.134,4.134,0,1,0,0-8.268h-8.269A4.134,4.134,0,1,0,182.867,74.412ZM21.627,122.847a4.13,4.13,0,0,0,4.134-4.136v-8.268a4.134,4.134,0,0,0-8.268,0v8.268A4.13,4.13,0,0,0,21.627,122.847ZM211.808,74.412h8.269a4.134,4.134,0,0,0,0-8.268h-8.269A4.134,4.134,0,1,0,211.808,74.412ZM21.627,93.905a4.132,4.132,0,0,0,4.134-4.136V86.816A12.4,12.4,0,0,1,26.39,82.9a4.134,4.134,0,1,0-7.847-2.6,20.765,20.765,0,0,0-1.05,6.527v2.95A4.132,4.132,0,0,0,21.627,93.905ZM133.255,66.144h-8.269a4.134,4.134,0,1,0,0,8.268h8.269A4.134,4.134,0,1,0,133.255,66.144Zm28.94,0h-8.269a4.134,4.134,0,1,0,0,8.268H162.2A4.134,4.134,0,1,0,162.2,66.144ZM64.744,223.262H56.475a4.136,4.136,0,0,0,0,8.271h8.269A4.136,4.136,0,0,0,64.744,223.262Zm115.762,0h-8.269a4.136,4.136,0,0,0,0,8.271h8.269A4.136,4.136,0,0,0,180.506,223.262Zm28.941,0h-8.269a4.136,4.136,0,0,0,0,8.271h8.269A4.136,4.136,0,0,0,209.447,223.262Zm-57.882,0H143.3a4.136,4.136,0,0,0,0,8.271h8.268A4.136,4.136,0,0,0,151.565,223.262ZM75.373,66.144H67.1a4.134,4.134,0,1,0,0,8.268h8.269A4.134,4.134,0,1,0,75.373,66.144ZM93.684,223.262H85.415a4.136,4.136,0,0,0,0,8.271h8.269A4.136,4.136,0,0,0,93.684,223.262Zm28.942,0h-8.27a4.136,4.136,0,0,0,0,8.271h8.27A4.136,4.136,0,0,0,122.626,223.262ZM104.314,66.144H96.045a4.134,4.134,0,1,0,0,8.268h8.269A4.134,4.134,0,1,0,104.314,66.144ZM240.748,120.6v-58.6a12.42,12.42,0,0,0-12.4-12.4H203.514l-13.38-36.162a4.127,4.127,0,0,0-5.363-2.426l-19.4,7.463L155.053,1.935A4.157,4.157,0,0,0,152.478.091a4.2,4.2,0,0,0-3.122.521L70.819,49.6H21.627A20.7,20.7,0,0,0,.954,70.278V227.4a20.7,20.7,0,0,0,20.672,20.675H228.345a12.421,12.421,0,0,0,12.4-12.407v-58.6a12.425,12.425,0,0,0,8.269-11.692V132.3A12.43,12.43,0,0,0,240.748,120.6Zm-46.043-71H107.531l57.533-22.143c0.038-.014.075-0.03,0.113-0.044l18.66-7.182ZM150.224,9.818L157.512,21.5,89.6,47.639ZM228.345,239.8H21.627a12.419,12.419,0,0,1-12.4-12.4V70.278a12.418,12.418,0,0,1,12.4-12.4H228.345a4.136,4.136,0,0,1,4.134,4.134V119.9H211.808a28.942,28.942,0,0,0,0,57.884h20.671v57.888A4.137,4.137,0,0,1,228.345,239.8Zm12.4-74.425a4.136,4.136,0,0,1-4.134,4.134H211.808a20.674,20.674,0,0,1,0-41.347h24.806a4.134,4.134,0,0,1,4.134,4.134v33.079ZM224.21,144.7H207.673a4.134,4.134,0,1,0,0,8.268H224.21A4.134,4.134,0,1,0,224.21,144.7Z" transform="translate(-0.969)"/>
</svg>
