<svg xmlns="http://www.w3.org/2000/svg" width="248" height="206" viewBox="0 0 248 206">
  <metadata><?xpacket begin="﻿" id="W5M0MpCehiHzreSzNTczkc9d"?>
<x:xmpmeta xmlns:x="adobe:ns:meta/" x:xmptk="Adobe XMP Core 5.6-c142 79.160924, 2017/07/13-01:06:39        ">
   <rdf:RDF xmlns:rdf="http://www.w3.org/1999/02/22-rdf-syntax-ns#">
      <rdf:Description rdf:about=""/>
   </rdf:RDF>
</x:xmpmeta>
                                                                                                    
                                                                                                    
                                                                                                    
                                                                                                    
                                                                                                    
                                                                                                    
                                                                                                    
                                                                                                    
                                                                                                    
                                                                                                    
                                                                                                    
                                                                                                    
                                                                                                    
                                                                                                    
                                                                                                    
                                                                                                    
                                                                                                    
                                                                                                    
                                                                                                    
                                                                                                    
                           
<?xpacket end="w"?></metadata>
<defs>
    <style>
      .cls-1 {
        fill-rule: evenodd;
      }
    </style>
  </defs>
  <path class="cls-1" d="M239.436,123.99V86.706a21.92,21.92,0,0,0-21.8-21.991H188.166L149.922,26.139a7.219,7.219,0,0,0-10.275,0L124.391,41.525,109.137,26.139a7.215,7.215,0,0,0-10.276,0L60.618,64.715H21.766A21.92,21.92,0,0,0-.033,86.706V208.027a21.919,21.919,0,0,0,21.8,21.988H217.637a21.919,21.919,0,0,0,21.8-21.988V170.74A14.684,14.684,0,0,0,248,157.381V137.35A14.689,14.689,0,0,0,239.436,123.99Zm-21.8,91.366H200.561a22.077,22.077,0,0,0,1.249-7.329V172.042H224.9v35.985A7.307,7.307,0,0,1,217.637,215.356Zm-195.871,0a7.306,7.306,0,0,1-7.266-7.329V86.706a7.307,7.307,0,0,1,7.266-7.332H180.01a7.305,7.305,0,0,1,7.266,7.332v35.985H159.959a14.611,14.611,0,0,0-14.533,14.659v20.031a14.615,14.615,0,0,0,14.533,14.661h27.317v35.985a7.3,7.3,0,0,1-7.266,7.329H21.766ZM224.9,86.706v35.985H201.81V86.706a22.064,22.064,0,0,0-1.249-7.332h17.076A7.307,7.307,0,0,1,224.9,86.706Zm-64.945,70.675V137.35h73.505l0.01,20.028a0.018,0.018,0,0,1-.01,0h-73.5Zm7.655-92.666H121.955l22.829-23.029Zm-66.211,0H81.17L104,41.687l10.116,10.206Z" transform="translate(0 -24)"/>
</svg>
